HIERARCHY
ROOT Hips
{
	OFFSET	0.00	0.00	0.00
	CHANNELS 6 Xposition Yposition Zposition Zrotation Xrotation Yrotation
	JOINT LeftUpLeg
	{
		OFFSET	 0.126116	-0.065224	 0.014019
		CHANNELS 3 Zrotation Xrotation Yrotation
		JOINT LeftLeg
		{
			OFFSET	 0.000000	 0.569914	 0.000000
			CHANNELS 3 Zrotation Xrotation Yrotation
			JOINT LeftFoot
			{
				OFFSET	 0.000000	 0.544423	 0.000000
				CHANNELS 3 Zrotation Xrotation Yrotation
				JOINT LeftToeBase
				{
					OFFSET	 0.000000	 0.207117	 0.000000
					CHANNELS 3 Zrotation Xrotation Yrotation
					End Site
					{
						OFFSET	 0.000000	 0.207117	 0.000000
					}
				}
			}
		}
	}
	JOINT RightUpLeg
	{
		OFFSET	-0.124023	-0.065224	 0.008373
		CHANNELS 3 Zrotation Xrotation Yrotation
		JOINT RightLeg
		{
			OFFSET	 0.000000	 0.570047	 0.000000
			CHANNELS 3 Zrotation Xrotation Yrotation
			JOINT RightFoot
			{
				OFFSET	 0.000000	 0.544354	 0.000000
				CHANNELS 3 Zrotation Xrotation Yrotation
				JOINT RightToeBase
				{
					OFFSET	 0.000000	 0.207540	 0.000000
					CHANNELS 3 Zrotation Xrotation Yrotation
					End Site
					{
						OFFSET	 0.000000	 0.207540	 0.000000
					}
				}
			}
		}
	}
	JOINT Spine
	{
		OFFSET	 0.000184	 0.117403	 0.007763
		CHANNELS 3 Zrotation Xrotation Yrotation
		JOINT Spine1
		{
			OFFSET	 0.000000	 0.137269	 0.000000
			CHANNELS 3 Zrotation Xrotation Yrotation
			JOINT Spine2
			{
				OFFSET	 0.000000	 0.156879	 0.000000
				CHANNELS 3 Zrotation Xrotation Yrotation
				JOINT LeftShoulder
				{
					OFFSET	 0.080501	 0.160143	 0.002496
					CHANNELS 3 Zrotation Xrotation Yrotation
					JOINT LeftArm
					{
						OFFSET	 0.000000	 0.164363	 0.000000
						CHANNELS 3 Zrotation Xrotation Yrotation
						JOINT LeftForeArm
						{
							OFFSET	 0.000000	 0.364576	 0.000000
							CHANNELS 3 Zrotation Xrotation Yrotation
							JOINT LeftHand
							{
								OFFSET	 0.000000	 0.360812	 0.000000
								CHANNELS 3 Zrotation Xrotation Yrotation
								JOINT LeftHandIndex1
								{
									OFFSET	 0.000000	 0.086006	 0.000000
									CHANNELS 3 Zrotation Xrotation Yrotation
									JOINT LeftHandIndex2
									{
										OFFSET	 0.000000	 0.047237	 0.000000
										CHANNELS 3 Zrotation Xrotation Yrotation
										JOINT LeftHandIndex3
										{
											OFFSET	-0.004284	 0.038165	 0.000551
											CHANNELS 3 Zrotation Xrotation Yrotation
											End Site
											{
												OFFSET	-0.004284	 0.038165	 0.000551
											}
										}
									}
								}
							}
						}
					}
				}
				JOINT Neck
				{
					OFFSET	 0.000000	 0.176489	 0.000000
					CHANNELS 3 Zrotation Xrotation Yrotation
					JOINT Head
					{
						OFFSET	 0.000000	 0.077941	 0.001747
						CHANNELS 3 Zrotation Xrotation Yrotation
						End Site
						{
							OFFSET	 0.000000	 0.077941	 0.001747
						}
					}
				}
				JOINT RightShoulder
				{
					OFFSET	-0.080363	 0.159706	-0.000306
					CHANNELS 3 Zrotation Xrotation Yrotation
					JOINT RightArm
					{
						OFFSET	 0.000000	 0.164196	 0.000000
						CHANNELS 3 Zrotation Xrotation Yrotation
						JOINT RightForeArm
						{
							OFFSET	 0.000000	 0.365611	 0.000000
							CHANNELS 3 Zrotation Xrotation Yrotation
							JOINT RightHand
							{
								OFFSET	 0.000000	 0.360648	 0.000000
								CHANNELS 3 Zrotation Xrotation Yrotation
								JOINT RightHandIndex1
								{
									OFFSET	 0.000000	 0.069977	 0.000000
									CHANNELS 3 Zrotation Xrotation Yrotation
									JOINT RightHandIndex2
									{
										OFFSET	 0.000000	 0.052305	 0.000000
										CHANNELS 3 Zrotation Xrotation Yrotation
										JOINT RightHandIndex3
										{
											OFFSET	 0.009002	 0.042196	 0.000782
											CHANNELS 3 Zrotation Xrotation Yrotation
											End Site
											{
												OFFSET	 0.009002	 0.042196	 0.000782
											}
										}
									}
								}
							}
						}
					}
				}
			}
		}
	}
}
MOTION
Frames:    12
Frame Time: 0.03333334
 0.002314	 1.271135	 0.063403	-0.380898	 0.004646	-179.993000	-177.334700	 0.844823	-10.302710	 2.101041	-9.818164	-0.076973	-5.259882	 69.716130	 4.715456	 1.292262	 28.425850	-2.713146	 176.626000	 2.156436	 10.271620	-2.507150	-12.011750	 0.002430	 5.503590	 70.723330	-4.846799	-1.288183	 28.361890	 2.710176	-0.053141	 2.965203	 9.539950	-2.170640	 3.046657	 4.920970	 2.060713	-3.790982	-14.389570	-101.478000	 1.740674	 90.353390	 5.584856	 66.148440	-2.146280	 2.203521	 4.599963	 1.366615	 13.709830	 5.713015	 31.731030	-6.580301	 5.266122	 0.000000	 0.000000	 0.000000	 0.000000	 0.000000	 0.000000	 0.000000	 0.089846	-3.783161	 0.005928	 0.025376	 0.812469	-3.577915	 101.796200	-0.213306	-89.955460	-5.259727	 61.878970	-3.291507	-6.974608	 10.553130	 1.926533	-5.275401	-12.003890	 35.281990	 15.208500	 5.323790	 0.000000	 0.000000	 0.000000	 0.000000	 0.000000	 0.000000	 0.000000
 0.001675	 1.271449	 0.064070	 0.038989	-0.393711	-179.998300	-176.937600	 1.732106	-10.280610	 2.291874	-10.689750	-0.042998	-5.310123	 70.111300	 4.678659	 1.292262	 28.425850	-2.713146	 177.002700	 2.245621	 10.290930	-2.348333	-11.271400	 0.034477	 5.352859	 70.280310	-4.749003	-1.288183	 28.361890	 2.710176	 0.184647	 4.909658	 3.978767	-1.055023	-5.291412	 1.921500	 1.236167	 6.749606	-6.021747	-101.478000	 1.740687	 90.353400	 15.165250	 64.934200	-11.152650	 2.259543	 4.453641	 1.553663	 1.394880	 1.513951	 13.695160	-6.580301	 5.266122	 0.000000	 0.000000	 0.000000	 0.000000	 0.000000	 0.000000	 0.000000	 0.089846	-3.783161	 0.005928	 0.032532	 2.462365	-1.513645	 101.796200	-0.213306	-89.955460	-18.251000	 65.141280	 8.699748	-2.808078	 4.100723	 1.039277	-4.000250	-2.922935	 14.590080	 15.208500	 5.323790	 0.000000	 0.000000	 0.000000	 0.000000	 0.000000	 0.000000	 0.000000
 0.001562	 1.271526	 0.064157	 0.076895	-0.447008	 179.995400	-176.904400	 1.809005	-10.278480	 2.299456	-10.724270	-0.041594	-5.280040	 70.123700	 4.646351	 1.292262	 28.425850	-2.713146	 177.034800	 2.239546	 10.292990	-2.318971	-11.134090	 0.040183	 5.336905	 70.200530	-4.746185	-1.288183	 28.361890	 2.710176	 0.104011	 5.017672	 1.955625	-0.531117	-5.897663	 0.944191	 0.624164	 7.524276	-2.956530	-101.478000	 1.740672	 90.353390	 15.721640	 64.757450	-11.695810	 2.207217	 4.433017	 1.239249	-0.224163	 1.013732	 6.771873	-6.580301	 5.266122	 0.000000	 0.000000	 0.000000	 0.000000	 0.000000	 0.000000	 0.000000	 0.089846	-3.783161	 0.005928	 0.017069	 2.623224	-0.745499	 101.796200	-0.213310	-89.955440	-21.067750	 65.170900	 11.279510	-2.793538	 4.144676	 1.409233	-3.168041	-1.766101	 8.118888	 15.208500	 5.323790	 0.000000	 0.000000	 0.000000	 0.000000	 0.000000	 0.000000	 0.000000
 0.001469	 1.271688	 0.064261	 0.127415	-0.513138	 179.987300	-176.856200	 1.871157	-10.276710	 2.294246	-10.700560	-0.042559	-5.231584	 70.104620	 4.599699	 1.292262	 28.425850	-2.713146	 177.076100	 2.221812	 10.294440	-2.278329	-10.943820	 0.047966	 5.312981	 70.091400	-4.738474	-1.288183	 28.361890	 2.710176	 0.001103	 4.993309	-0.576389	 0.139718	-6.065636	-0.274417	-0.179251	 7.732694	 0.894726	-101.478000	 1.740673	 90.353390	 15.731880	 64.616520	-11.757290	 2.486828	 4.415473	 0.782018	-1.657471	 0.306880	-1.931550	-6.580301	 5.266122	 0.000000	 0.000000	 0.000000	 0.000000	 0.000000	 0.000000	 0.000000	 0.089846	-3.783161	 0.005928	-0.005122	 2.668851	 0.219881	 101.796200	-0.213323	-89.955450	-24.783030	 65.207200	 14.695990	-3.138343	 4.222248	 1.516338	-6.428823	-0.514303	-3.696658	 15.208500	 5.323790	 0.000000	 0.000000	 0.000000	 0.000000	 0.000000	 0.000000	 0.000000
 0.001399	 1.271800	 0.064354	 0.180163	-0.569771	 179.980000	-176.805100	 1.948935	-10.275200	 2.300633	-10.729650	-0.041370	-5.202055	 70.113360	 4.565411	 1.292262	 28.425850	-2.713146	 177.119600	 2.225778	 10.295480	-2.251755	-10.819260	 0.052982	 5.305049	 70.017130	-4.739069	-1.288183	 28.361890	 2.710176	-0.077340	 4.838142	-2.763570	 0.714009	-5.710224	-1.327565	-0.863521	 7.265204	 4.217351	-101.478000	 1.740672	 90.353390	 15.129210	 64.513530	-11.247190	 2.771157	 4.401202	 0.319760	-2.414094	-0.220828	-9.493900	-6.580301	 5.266122	 0.000000	 0.000000	 0.000000	 0.000000	 0.000000	 0.000000	 0.000000	 0.089846	-3.783161	 0.005928	-0.023635	 2.571962	 1.052844	 101.796200	-0.213320	-89.955440	-18.245090	 60.603600	 8.996219	-11.141140	 15.523080	 3.088633	-5.807575	-4.300916	-14.927160	 15.208500	 5.323790	 0.000000	 0.000000	 0.000000	 0.000000	 0.000000	 0.000000	 0.000000
 0.001339	 1.271801	 0.064452	 0.221817	-0.626009	 179.976900	-176.766000	 2.072347	-10.273800	 2.326953	-10.849430	-0.036447	-5.206031	 70.167490	 4.556468	 1.292262	 28.425850	-2.713146	 177.155500	 2.284104	 10.296410	-2.248900	-10.805870	 0.053516	 5.309869	 70.000630	-4.741843	-1.288183	 28.361890	 2.710176	-0.158399	 4.540423	-4.934680	 1.240285	-4.833935	-2.383152	-1.481343	 6.128325	 7.491952	-101.478000	 1.740661	 90.353370	 13.852860	 64.356290	-10.111110	 3.130840	 4.386975	-0.261988	-2.667472	-0.769889	-17.039360	-6.580301	 5.266122	 0.000000	 0.000000	 0.000000	 0.000000	 0.000000	 0.000000	 0.000000	 0.089846	-3.783161	 0.005928	-0.038328	 2.343402	 1.873811	 101.796200	-0.213313	-89.955440	-11.887700	 53.796280	 4.070807	-24.291220	 30.909430	 8.693583	-3.541418	-9.479200	-26.979720	 15.208500	 5.323790	 0.000000	 0.000000	 0.000000	 0.000000	 0.000000	 0.000000	 0.000000
 0.001292	 1.271702	 0.064532	 0.233947	-0.668765	 179.979100	-176.757500	 2.197073	-10.272800	 2.360207	-11.000640	-0.030142	-5.234422	 70.238580	 4.571353	 1.292262	 28.425850	-2.713146	 177.167800	 2.370485	 10.297270	-2.264962	-10.881170	 0.050493	 5.317672	 70.032970	-4.741504	-1.288183	 28.361890	 2.710176	-0.223952	 4.205414	-6.472203	 1.559000	-3.787500	-3.145432	-1.845052	 4.780473	 9.789020	-101.478000	 1.740676	 90.353400	 12.376450	 64.141910	-8.780071	 3.476388	 4.376289	-0.818314	-2.447606	-1.251630	-22.411470	-6.580301	 5.266122	 0.000000	 0.000000	 0.000000	 0.000000	 0.000000	 0.000000	 0.000000	 0.089846	-3.783161	 0.005928	-0.044633	 2.087385	 2.449571	 101.796200	-0.213312	-89.955460	-10.662310	 49.467410	 3.888260	-35.970250	 40.443670	 15.886700	-1.639597	-12.216200	-36.057960	 15.208500	 5.323790	 0.000000	 0.000000	 0.000000	 0.000000	 0.000000	 0.000000	 0.000000
 0.001241	 1.271589	 0.064622	 0.257957	-0.716153	 179.982200	-176.737100	 2.347204	-10.271470	 2.402326	-11.191910	-0.022035	-5.273639	 70.329250	 4.592515	 1.292262	 28.425850	-2.713146	 177.190700	 2.468292	 10.298290	-2.283708	-10.969000	 0.046943	 5.328039	 70.070900	-4.741059	-1.288183	 28.361890	 2.710176	-0.254739	 3.778393	-7.771549	 1.782679	-2.448125	-3.807255	-2.074841	 3.066052	 11.715580	-101.478000	 1.740670	 90.353390	 10.519820	 63.809510	-7.098934	 3.890090	 4.365683	-1.482623	-1.838791	-1.804506	-26.991820	-6.580301	 5.266122	 0.000000	 0.000000	 0.000000	 0.000000	 0.000000	 0.000000	 0.000000	 0.089846	-3.783161	 0.005928	-0.045686	 1.785118	 2.931811	 101.796200	-0.213308	-89.955460	-12.174780	 45.776690	 6.479902	-50.641510	 48.093570	 26.602510	 1.266647	-14.627490	-44.188700	 15.208500	 5.323790	 0.000000	 0.000000	 0.000000	 0.000000	 0.000000	 0.000000	 0.000000
 0.001180	 1.271514	 0.064709	 0.290513	-0.763720	 179.983900	-176.708100	 2.485600	-10.269970	 2.439364	-11.359920	-0.014792	-5.302869	 70.408360	 4.605648	 1.292262	 28.425850	-2.713146	 177.220400	 2.544891	 10.299390	-2.293209	-11.013510	 0.045129	 5.333785	 70.086240	-4.739614	-1.288183	 28.361890	 2.710176	-0.248383	 3.324492	-8.668827	 1.890465	-1.034843	-4.287744	-2.154549	 1.263590	 13.042790	-101.478000	 1.740678	 90.353390	 8.587923	 63.384670	-5.353545	 4.322722	 4.355792	-2.175936	-0.954902	-2.364776	-30.206030	-6.580301	 5.266122	 0.000000	 0.000000	 0.000000	 0.000000	 0.000000	 0.000000	 0.000000	 0.089846	-3.783161	 0.005928	-0.042545	 1.493997	 3.262178	 101.796200	-0.213314	-89.955470	-16.839150	 43.116580	 11.985780	-65.647510	 52.438520	 38.606190	 5.050947	-16.646870	-49.847370	 15.208500	 5.323790	 0.000000	 0.000000	 0.000000	 0.000000	 0.000000	 0.000000	 0.000000
 0.001085	 1.271421	 0.064707	 0.325272	-0.760502	 179.986900	-176.678300	 2.566108	-10.267640	 2.476561	-11.528420	-0.007414	-5.342224	 70.495200	 4.630002	 1.292262	 28.425850	-2.713146	 177.253100	 2.543020	 10.301470	-2.294115	-11.017750	 0.044955	 5.337226	 70.088650	-4.740471	-1.288183	 28.361890	 2.710176	-0.217090	 2.911085	-9.229228	 1.935320	 0.410811	-4.618351	-2.134899	-0.569844	 13.876280	-101.478000	 1.740663	 90.353390	 6.701457	 62.818050	-3.663617	 4.774683	 4.367055	-2.885224	 0.113312	-2.865714	-32.274850	-6.580301	 5.266122	 0.000000	 0.000000	 0.000000	 0.000000	 0.000000	 0.000000	 0.000000	 0.089846	-3.783161	 0.005928	-0.037075	 1.225264	 3.466184	 101.796200	-0.213303	-89.955460	-24.968450	 40.491100	 20.520170	-78.847240	 54.159160	 49.604680	 9.832364	-18.456390	-52.645980	 15.208500	 5.323790	 0.000000	 0.000000	 0.000000	 0.000000	 0.000000	 0.000000	 0.000000
 0.001002	 1.271364	 0.064703	 0.355613	-0.758341	 179.989600	-176.651900	 2.624524	-10.265640	 2.503491	-11.650300	-0.002003	-5.370775	 70.558070	 4.648148	 1.292262	 28.425850	-2.713146	 177.281300	 2.530058	 10.303270	-2.289770	-10.997410	 0.045787	 5.333994	 70.078480	-4.737325	-1.288183	 28.361890	 2.710176	-0.174447	 2.534523	-9.489017	 1.916221	 1.715592	-4.807033	-2.046339	-2.227411	 14.274660	-101.478000	 1.740675	 90.353390	 5.033727	 62.256570	-2.182214	 5.182963	 4.377164	-3.525677	 1.240847	-3.311973	-33.309940	-6.580301	 5.266122	 0.000000	 0.000000	 0.000000	 0.000000	 0.000000	 0.000000	 0.000000	 0.089846	-3.783161	 0.005928	-0.031182	 1.003700	 3.558784	 101.796200	-0.213317	-89.955440	-35.399560	 37.510400	 30.348860	-84.355580	 54.238150	 54.290880	 13.700800	-19.053140	-53.202080	 15.208500	 5.323790	 0.000000	 0.000000	 0.000000	 0.000000	 0.000000	 0.000000	 0.000000
 0.000930	 1.271337	 0.064701	 0.382092	-0.756793	 179.991600	-176.628700	 2.664702	-10.263940	 2.522069	-11.734310	 0.001762	-5.389308	 70.601570	 4.659884	 1.292262	 28.425850	-2.713146	 177.305600	 2.508395	 10.304850	-2.281333	-10.957880	 0.047392	 5.326782	 70.058340	-4.732408	-1.288183	 28.361890	 2.710176	-0.125148	 2.177394	-9.540067	 1.855608	 2.949857	-4.897120	-1.914191	-3.801562	 14.374160	-101.478000	 1.740679	 90.353390	 3.470960	 61.612140	-0.813330	 5.628855	 4.386273	-4.226605	 2.420635	-3.696192	-33.633490	-6.580301	 5.266122	 0.000000	 0.000000	 0.000000	 0.000000	 0.000000	 0.000000	 0.000000	 0.089846	-3.783161	 0.005928	-0.025319	 0.811489	 3.574109	 101.796200	-0.213315	-89.955460	-48.887180	 32.305570	 41.672330	-81.457170	 53.718980	 51.932870	 16.350620	-18.048580	-52.839490	 15.208500	 5.323790	 0.000000	 0.000000	 0.000000	 0.000000	 0.000000	 0.000000	 0.000000
